<svg xmlns="http://www.w3.org/2000/svg" viewBox="0 0 800 600" font-family="Inter, -apple-system, BlinkMacSystemFont, sans-serif">
  <defs>
    <!-- Gradients -->
    <linearGradient id="startGradient" x1="0%" y1="0%" x2="100%" y2="100%">
      <stop offset="0%" style="stop-color:#4ade80;stop-opacity:1" />
      <stop offset="100%" style="stop-color:#22c55e;stop-opacity:1" />
    </linearGradient>
    
    <linearGradient id="decisionGradient" x1="0%" y1="0%" x2="100%" y2="100%">
      <stop offset="0%" style="stop-color:#60a5fa;stop-opacity:1" />
      <stop offset="100%" style="stop-color:#3b82f6;stop-opacity:1" />
    </linearGradient>
    
    <linearGradient id="actionGradient" x1="0%" y1="0%" x2="100%" y2="100%">
      <stop offset="0%" style="stop-color:#f97316;stop-opacity:1" />
      <stop offset="100%" style="stop-color:#ea580c;stop-opacity:1" />
    </linearGradient>
    
    <linearGradient id="processGradient" x1="0%" y1="0%" x2="100%" y2="100%">
      <stop offset="0%" style="stop-color:#a855f7;stop-opacity:1" />
      <stop offset="100%" style="stop-color:#9333ea;stop-opacity:1" />
    </linearGradient>

    <!-- Shadows -->
    <filter id="shadow" x="-20%" y="-20%" width="140%" height="140%">
      <feDropShadow dx="2" dy="4" stdDeviation="3" flood-opacity="0.2"/>
    </filter>

    <!-- Arrows -->
    <marker id="arrowYes" markerWidth="12" markerHeight="12" refX="10" refY="6" orient="auto" markerUnits="strokeWidth">
      <path d="M2,2 L10,6 L2,10 L4,6 Z" fill="#22c55e" stroke="#16a34a" stroke-width="0.5"/>
    </marker>
    
    <marker id="arrowNo" markerWidth="12" markerHeight="12" refX="10" refY="6" orient="auto" markerUnits="strokeWidth">
      <path d="M2,2 L10,6 L2,10 L4,6 Z" fill="#ef4444" stroke="#dc2626" stroke-width="0.5"/>
    </marker>
    
    <marker id="arrowDefault" markerWidth="12" markerHeight="12" refX="10" refY="6" orient="auto" markerUnits="strokeWidth">
      <path d="M2,2 L10,6 L2,10 L4,6 Z" fill="#6b7280" stroke="#4b5563" stroke-width="0.5"/>
    </marker>
  </defs>

  <!-- Title -->
  <text x="400" y="30" fill="#1f2937" text-anchor="middle" font-size="20" font-weight="bold">
    Disappearing Text Writer
  </text>

  <!-- 1. Start (Oval) -->
  <ellipse cx="400" cy="80" rx="60" ry="25" fill="url(#startGradient)" filter="url(#shadow)" stroke="#16a34a" stroke-width="2"/>
  <text x="400" y="87" fill="white" text-anchor="middle" font-weight="bold" font-size="14">START</text>

  <!-- Arrow 1 -->
  <line x1="400" y1="105" x2="400" y2="135" stroke="#6b7280" stroke-width="2" marker-end="url(#arrowDefault)"/>

  <!-- 2. User types? (Diamond) -->
  <path d="M400 135 L480 170 L400 205 L320 170 Z" fill="url(#decisionGradient)" filter="url(#shadow)" stroke="#2563eb" stroke-width="2"/>
  <text x="400" y="170" fill="white" text-anchor="middle" font-weight="bold" font-size="12">User</text>
  <text x="400" y="185" fill="white" text-anchor="middle" font-weight="bold" font-size="12">typed?</text>

  <!-- Arrow YES (down) -->
  <line x1="400" y1="205" x2="400" y2="235" stroke="#22c55e" stroke-width="3" marker-end="url(#arrowYes)"/>
  <text x="415" y="225" fill="#16a34a" font-weight="bold" font-size="12">YES</text>

  <!-- 3. Timer running? (Diamond) -->
  <path d="M400 235 L480 270 L400 305 L320 270 Z" fill="url(#decisionGradient)" filter="url(#shadow)" stroke="#2563eb" stroke-width="2"/>
  <text x="400" y="270" fill="white" text-anchor="middle" font-weight="bold" font-size="12">Timer is</text>
  <text x="400" y="285" fill="white" text-anchor="middle" font-weight="bold" font-size="12">running?</text>

  <!-- Arrow YES (down) -->
  <line x1="400" y1="305" x2="400" y2="335" stroke="#22c55e" stroke-width="3" marker-end="url(#arrowYes)"/>
  <text x="415" y="325" fill="#16a34a" font-weight="bold" font-size="12">YES</text>

  <!-- Arrow NO (left and up) -->
  <path d="M 320 270 Q 250 270 250 170 Q 250 135 320 135" fill="none" stroke="#ef4444" stroke-width="3" marker-end="url(#arrowNo)"/>
  <text x="275" y="265" fill="#dc2626" font-weight="bold" font-size="12">NO</text>

  <!-- 4. Reset timer (Rectangle) -->
  <rect x="320" y="335" width="160" height="50" rx="8" fill="url(#actionGradient)" filter="url(#shadow)" stroke="#ea580c" stroke-width="2"/>
  <text x="400" y="355" fill="white" text-anchor="middle" font-weight="bold" font-size="13">Reset timer</text>
  <text x="400" y="372" fill="white" text-anchor="middle" font-weight="bold" font-size="13">to 5s</text>

  <!-- Arrow down -->
  <line x1="400" y1="385" x2="400" y2="415" stroke="#6b7280" stroke-width="2" marker-end="url(#arrowDefault)"/>

  <!-- 5. Timer countdown (Rectangle) -->
  <rect x="320" y="415" width="160" height="50" rx="8" fill="url(#processGradient)" filter="url(#shadow)" stroke="#9333ea" stroke-width="2"/>
  <text x="400" y="435" fill="white" text-anchor="middle" font-weight="bold" font-size="13">Timer counting</text>
  <text x="400" y="452" fill="white" text-anchor="middle" font-weight="bold" font-size="13">down</text>

  <!-- Arrow right -->
  <line x1="480" y1="440" x2="535" y2="440" stroke="#6b7280" stroke-width="2" marker-end="url(#arrowDefault)"/>

  <!-- 6. Timer = 0? (Diamond) -->
  <path d="M535 440 L595 465 L535 490 L475 465 Z" fill="url(#decisionGradient)" filter="url(#shadow)" stroke="#2563eb" stroke-width="2"/>
  <text x="535" y="460" fill="white" text-anchor="middle" font-weight="bold" font-size="12">Timer</text>
  <text x="535" y="475" fill="white" text-anchor="middle" font-weight="bold" font-size="12">= 0?</text>

  <!-- Arrow YES (up) -->
  <line x1="535" y1="440" x2="535" y2="385" stroke="#22c55e" stroke-width="3" marker-end="url(#arrowYes)"/>
  <text x="550" y="415" fill="#16a34a" font-weight="bold" font-size="12">YES</text>

  <!-- Arrow NO (loop back) -->
  <path d="M 475 465 Q 400 500 400 465 Q 400 440 475 440" fill="none" stroke="#ef4444" stroke-width="3" marker-end="url(#arrowNo)"/>
  <text x="400" y="515" fill="#dc2626" font-weight="bold" font-size="12">NO</text>

  <!-- 7. Clear text (Rectangle) -->
  <rect x="455" y="335" width="160" height="50" rx="8" fill="url(#actionGradient)" filter="url(#shadow)" stroke="#ea580c" stroke-width="2"/>
  <text x="535" y="355" fill="white" text-anchor="middle" font-weight="bold" font-size="13">Clear user</text>
  <text x="535" y="372" fill="white" text-anchor="middle" font-weight="bold" font-size="13">text</text>

  <!-- Arrow to start -->
  <path d="M 535 335 Q 535 80 460 80" fill="none" stroke="#6b7280" stroke-width="2" marker-end="url(#arrowDefault)" stroke-dasharray="5,5"/>
  <text x="600" y="200" fill="#6b7280" font-size="11" transform="rotate(90 600 200)">Restart process</text>

  <!-- Legend -->
  <rect x="50" y="450" width="200" height="120" rx="8" fill="#f8fafc" stroke="#e2e8f0" stroke-width="1" opacity="0.9"/>
  <text x="60" y="470" fill="#1f2937" font-weight="bold" font-size="14">Legend:</text>
  
  <!-- Start/End -->
  <ellipse cx="77" cy="490" rx="15" ry="8" fill="url(#startGradient)"/>
  <text x="100" y="495" fill="#374151" font-size="11">Start/End</text>
  
  <!-- Decision -->
  <path d="M77 507 L87 515 L77 523 L67 515 Z" fill="url(#decisionGradient)"/>
  <text x="100" y="520" fill="#374151" font-size="11">Decision</text>
  
  <!-- Action -->
  <rect x="62" y="532" width="30" height="15" rx="3" fill="url(#actionGradient)"/>
  <text x="100" y="542" fill="#374151" font-size="11">Action</text>
  
  <!-- Process -->
  <rect x="62" y="552" width="30" height="15" rx="3" fill="url(#processGradient)"/>
  <text x="100" y="562" fill="#374151" font-size="11">Process</text>
</svg>